PathFileType	4	(X/Y/Z)	/Users/niels/Desktop/University/Third Semester/Perception and Action/Exam/Gymnastics Motion Tracking/Code for Gym Tracking/Analyzed Data/Start Salto/stsalto_good_id8_2_Sports2D/stsalto_good_id8_2_Sports2D_px_person00.trc
DataRate	CameraRate	NumFrames	NumMarkers	Units	OrigDataRate	OrigDataStartFrame	OrigNumFrames
29.788732394366196	29.788732394366196	12	22	m	29.788732394366196	17	142
Frame#	Time	Hip			RHip			RKnee			RAnkle			RBigToe			RSmallToe			RHeel			LHip			LKnee			LAnkle			LBigToe			LSmallToe			LHeel			Neck			Head			Nose			RShoulder			RElbow			RWrist			LShoulder			LElbow			LWrist		
		X1	Y1	Z1	X2	Y2	Z2	X3	Y3	Z3	X4	Y4	Z4	X5	Y5	Z5	X6	Y6	Z6	X7	Y7	Z7	X8	Y8	Z8	X9	Y9	Z9	X10	Y10	Z10	X11	Y11	Z11	X12	Y12	Z12	X13	Y13	Z13	X14	Y14	Z14	X15	Y15	Z15	X16	Y16	Z16	X17	Y17	Z17	X18	Y18	Z18	X19	Y19	Z19	X20	Y20	Z20	X21	Y21	Z21	X22	Y22	Z22
17	0.5706855791962175	0.7162709183521141	-0.37399727985787895	0.0	0.7193227876398369	-0.37850029903743193	0.0	0.7267243984747036	-0.5108892529068404	0.0	0.6316363849782081	-0.600322410002392	0.0	0.6206238518167501	-0.654242235199985	0.0	0.6168884789032933	-0.6488551399748012	0.0	0.6109164763339079	-0.5993599770574319	0.0	0.7113259957124853	-0.37248870059634503	0.0	0.7151139782623314	-0.5050161938929096	0.0	0.6294222320031457	-0.5905450456832719	0.0	0.6293264203263115	-0.6441313466458561	0.0	0.6258831172346867	-0.6395094340500436	0.0	0.6103478006293256	-0.5921519829491892	0.0	0.8916210519959413	-0.3347344664778519	0.0	0.9833170056161602	-0.35138436046722993	0.0	0.9370959626901479	-0.37212479529384423	0.0	0.8807587298920801	-0.34266944744361	0.0	0.8630178503100588	-0.42450309172613176	0.0	0.9226144597471839	-0.47337194994314086	0.0	0.8738463896840395	-0.3176336893157012	0.0	0.8455102977441668	-0.41468682028008735	0.0	0.9062934316296964	-0.4614809351325311	0.0
18	0.6042553191489362	0.7326251066809673	-0.3508037765425412	0.0	0.7346602985917294	-0.3559676987472079	0.0	0.7412875498742924	-0.4880884698026012	0.0	0.6342502163725253	-0.5609188030135142	0.0	0.6172274842328607	-0.6150863021026619	0.0	0.6126702092880923	-0.6082306549196153	0.0	0.6129952271550364	-0.5568899436447837	0.0	0.728278139139673	-0.3491653277940319	0.0	0.7308231370367096	-0.4806993791724291	0.0	0.6351829901125062	-0.5505182194165669	0.0	0.627093844937477	-0.6028450249482372	0.0	0.6248733918784318	-0.5996811818917172	0.0	0.6151633442451878	-0.5484451633680539	0.0	0.9125492096771366	-0.33760750996326644	0.0	1.0009402527572473	-0.36480833807775664	0.0	0.9524376563725522	-0.3799772348149396	0.0	0.8984130169743819	-0.34328833623319693	0.0	0.8614327976155798	-0.42241706806783924	0.0	0.9082668538765291	-0.4829669394803534	0.0	0.8968054570288153	-0.3193511906061067	0.0	0.8510490896825158	-0.4128694539355977	0.0	0.8937295913110247	-0.4694955377782918	0.0
19	0.6378250591016549	0.7503654789669817	-0.33077350105584746	0.0	0.7509129672619002	-0.3363838136469825	0.0	0.7549150379974524	-0.4676432013518852	0.0	0.6393274738967779	-0.5212929868717561	0.0	0.6169358794765284	-0.5749527129843933	0.0	0.6114124972549888	-0.5668192874442063	0.0	0.6183258840291612	-0.5146356072707061	0.0	0.7472958754920203	-0.3292246968879512	0.0	0.7466178273587097	-0.4588771817450099	0.0	0.6442754696587442	-0.5110605173641353	0.0	0.6275098307111379	-0.5604451389758456	0.0	0.6268770358468618	-0.559053632597618	0.0	0.6241384848039234	-0.5051724878511873	0.0	0.9307753668442774	-0.3436628462788354	0.0	1.0132435236753894	-0.38103762506944405	0.0	0.9637566379903483	-0.38985086679723185	0.0	0.9134093414256708	-0.34591760616995115	0.0	0.8590755992091536	-0.41777115757962463	0.0	0.8896817180625592	-0.4858915450111433	0.0	0.9175418127467316	-0.3247776191403924	0.0	0.8576324225435513	-0.40987276750024726	0.0	0.882489620005692	-0.4722706837270912	0.0
20	0.6713947990543735	0.7691458512571856	-0.31330732517909504	0.0	0.7679410020783664	-0.31913612990334816	0.0	0.7673487361054194	-0.44881894184855553	0.0	0.647358582985119	-0.48152616591815833	0.0	0.6198664150685959	-0.5342585516257929	0.0	0.6136071421666842	-0.5249243401686191	0.0	0.6276210512961147	-0.4725132369431869	0.0	0.7678318345003228	-0.31199420678749484	0.0	0.7620647179438378	-0.43895951799946725	0.0	0.6568098285867138	-0.4722463143482909	0.0	0.6306569498296823	-0.5179031613716364	0.0	0.6319500544019173	-0.5182090044607769	0.0	0.637734875788713	-0.46242564954331844	0.0	0.9468299435648505	-0.35189026806283424	0.0	1.0208515071166946	-0.39917203203916357	0.0	0.9717880538589607	-0.4010122789562636	0.0	0.9265944539726536	-0.3497995679940544	0.0	0.8572565524890529	-0.41074358790640353	0.0	0.8697668781103017	-0.4826188271743565	0.0	0.936565837932282	-0.3324859975743	0.0	0.867832216458143	-0.4067205487141451	0.0	0.8780231276681506	-0.47063386806539803	0.0
21	0.7049645390070922	0.7882587299410851	-0.2980838464574822	0.0	0.7853103946149286	-0.3039704588872709	0.0	0.7780974844758785	-0.43140980437726917	0.0	0.6582079990446418	-0.4426171767108001	0.0	0.6258280333025188	-0.49402150735917544	0.0	0.6192811728772744	-0.4834699026292706	0.0	0.6406357463788759	-0.43137404662244977	0.0	0.7888120462905456	-0.29707738621216284	0.0	0.7764235860598335	-0.4208528164198467	0.0	0.6725977526442661	-0.43499110528020685	0.0	0.6368081753590905	-0.47688295204480585	0.0	0.6403583570766543	-0.47847863405296764	0.0	0.6557585938365981	-0.4212629840451292	0.0	0.9605737698906922	-0.3612884238649404	0.0	1.0239884221971396	-0.41814278599017407	0.0	0.9768598645146287	-0.41251508398490405	0.0	0.9382208697011701	-0.3543137775566385	0.0	0.8567375545926849	-0.4017982356225815	0.0	0.8510451453612066	-0.47406838043533533	0.0	0.9539568510244674	-0.3412288802407726	0.0	0.8839708114570319	-0.4042676614637158	0.0	0.8844900850032591	-0.46559335711068506	0.0
22	0.7385342789598108	0.8071010979351101	-0.2847073191687828	0.0	0.8027093230088634	-0.2906858640699174	0.0	0.7868380796719219	-0.4153573156158542	0.0	0.6712437457977418	-0.4056032410704135	0.0	0.6342850216695382	-0.45505107156740376	0.0	0.6279541589347353	-0.44330680125857125	0.0	0.6563292576058246	-0.39222336350813747	0.0	0.8092374253179345	-0.283996601098616	0.0	0.7890548023527496	-0.4044607859145467	0.0	0.6909084931620081	-0.4001509720291581	0.0	0.6461937687136664	-0.4382661076069544	0.0	0.6522845143353583	-0.44057151236184106	0.0	0.6772787258449705	-0.3827192379681024	0.0	0.9716475233391291	-0.37100174951751785	0.0	1.0230082654464077	-0.43698202572974293	0.0	0.9792389543943569	-0.42341425230471497	0.0	0.9481863818395988	-0.35905041002182225	0.0	0.8577422161053279	-0.3915677287014784	0.0	0.8352530528014576	-0.4612669863753289	0.0	0.9695391285649408	-0.35015838592506215	0.0	0.906578773382716	-0.40267287094467225	0.0	0.9030427233491137	-0.45817353180748943	0.0
23	0.7721040189125296	0.825183575325836	-0.27280860220679143	0.0	0.8198501103807156	-0.2791270040345442	0.0	0.7936328012168606	-0.40053625585058134	0.0	0.6854693123981842	-0.37131456384322237	0.0	0.6441951957312634	-0.417902970615546	0.0	0.6386052861824622	-0.40513727844302716	0.0	0.6732149930838796	-0.35600552382161144	0.0	0.8282207861685444	-0.2722161385318323	0.0	0.799611240462416	-0.3895369676948788	0.0	0.7099651698145627	-0.36797916416670906	0.0	0.658406785361509	-0.4017410978049754	0.0	0.66706361050232	-0.40424147685423417	0.0	0.7001497458224019	-0.3472423554731067	0.0	0.9797091915901075	-0.38029663999094593	0.0	1.018804088388063	-0.4544914342282492	0.0	0.9793319946305269	-0.4329511844067501	0.0	0.95627041155872	-0.3637410013480811	0.0	0.8600390882305328	-0.3807736032154694	0.0	0.8231352433087191	-0.44528071578516654	0.0	0.9826753540010803	-0.35871000355922356	0.0	0.9320189219765485	-0.4009852694001777	0.0	0.9283512820259715	-0.4489428169627085	0.0
24	0.8056737588652483	0.8420235733114716	-0.26241680354329733	0.0	0.8362678210534814	-0.26930458746375413	0.0	0.7989709341947371	-0.38680322022742875	0.0	0.699733659038201	-0.3407556680976766	0.0	0.6542334817288403	-0.3832969125066606	0.0	0.649984115302188	-0.3698467355127179	0.0	0.6898515310200556	-0.3239278579514168	0.0	0.8450259928047664	-0.2616401083018804	0.0	0.8081686186206066	-0.3759905929103729	0.0	0.7275000964371025	-0.33856177658992886	0.0	0.6724165290327874	-0.3668056149940766	0.0	0.6832468730748299	-0.369220522396824	0.0	0.7215281132960358	-0.31512856443699105	0.0	0.9845268524821237	-0.3884683163607546	0.0	1.0126425512579567	-0.4691849962424983	0.0	0.9774604591193115	-0.4405221735162437	0.0	0.9623377840908887	-0.36805308497751443	0.0	0.8631138574398647	-0.37016748712277825	0.0	0.8147084242326472	-0.4273456763721491	0.0	0.992287117031472	-0.366389738841125	0.0	0.9515269838243517	-0.39693370135876255	0.0	0.9468442654536533	-0.4370547480750727	0.0
25	0.8392434988179669	0.857422422036851	-0.25384228583468027	0.0	0.8516306400455468	-0.26123594015341695	0.0	0.8037642407550206	-0.37401523328895164	0.0	0.7132038677829283	-0.314727568246381	0.0	0.6635536224367089	-0.3518438557289018	0.0	0.6612655053843778	-0.3381953322527422	0.0	0.705437119470062	-0.29696457340405286	0.0	0.8595929853617242	-0.25274354414582406	0.0	0.8155005200970499	-0.3639461681735677	0.0	0.742482142041633	-0.3122042470867426	0.0	0.6873676766947568	-0.33368789424725	0.0	0.6996984713140784	-0.33594294292823973	0.0	0.7397777256511214	-0.2868297709864461	0.0	0.9862750968036055	-0.3949967194613535	0.0	1.005587873395843	-0.4800347090606406	0.0	0.9737047892966911	-0.4457454406771067	0.0	0.966540261306758	-0.3716548635648591	0.0	0.8664944287363896	-0.3603750820604242	0.0	0.8095993412688337	-0.40875278358897604	0.0	0.9976492082703287	-0.37282786471212276	0.0	0.956480911839298	-0.38820346346807966	0.0	0.9448198832696291	-0.42077276644865674	0.0
26	0.8728132387706856	0.871593779064481	-0.24721026835009746	0.0	0.8659844509116166	-0.25476619772259423	0.0	0.8089815767821279	-0.3620726323708222	0.0	0.725714116432055	-0.2931149292635561	0.0	0.6724059013997896	-0.32364911105434996	0.0	0.6724908669307929	-0.3104000425701227	0.0	0.7199412757906365	-0.27500359696633325	0.0	0.8726344823355234	-0.24598078283649416	0.0	0.8228466807606556	-0.35346580039958586	0.0	0.7558205383713552	-0.2891977451573034	0.0	0.7031930608944835	-0.3035926129803146	0.0	0.7163171751219912	-0.30564550600049173	0.0	0.7553477593102139	-0.2627646260908583	0.0	0.9856415981283492	-0.3997796787627605	0.0	0.9981908550600739	-0.486952936847211	0.0	0.9682415061857798	-0.44865263315788956	0.0	0.9692715941965092	-0.37446996940745686	0.0	0.8700233825466346	-0.35172695057315567	0.0	0.8072541808382775	-0.3906072890196565	0.0	0.9991332766989672	-0.3779295911231339	0.0	0.9466680349036113	-0.37502351521616595	0.0	0.9215660874358956	-0.4002289562499351	0.0
27	0.9063829787234042	0.884965009525238	-0.24225387139651183	0.0	0.879647257759563	-0.24953473803517007	0.0	0.8151607320431339	-0.35087310154705564	0.0	0.7377956952609223	-0.27477729723475297	0.0	0.6820537132355563	-0.2982880589142422	0.0	0.6845143125386755	-0.2860025658541408	0.0	0.7338614589705799	-0.2567043450921569	0.0	0.8851545749299283	-0.24121149882367998	0.0	0.8312263722686196	-0.34425843188638655	0.0	0.769382067019887	-0.269321535760636	0.0	0.7203860064669682	-0.2780656775598397	0.0	0.7337109444849829	-0.2797790779777976	0.0	0.769924376638875	-0.242842620946987	0.0	0.9835261057481008	-0.40317045999641327	0.0	0.9906587419262647	-0.49054212415891035	0.0	0.9617136713877643	-0.4497436986097529	0.0	0.9709972782964329	-0.3767877896372587	0.0	0.8738211690386964	-0.3441907761374384	0.0	0.8070956638948198	-0.37363569887257364	0.0	0.9980032809799488	-0.38193010366642444	0.0	0.9302419253381876	-0.36054613270525415	0.0	0.8895178842315762	-0.3783885437990382	0.0
28	0.939952718676123	0.898097647966536	-0.2384888174476969	0.0	0.8931635583670487	-0.24508041657401008	0.0	0.822260100217959	-0.34011347176278084	0.0	0.7504329804561918	-0.2579942572325437	0.0	0.6939595453551575	-0.27481677043619535	0.0	0.6984933093195279	-0.2638176758049641	0.0	0.7480801770481054	-0.2401322453330355	0.0	0.8980779800827825	-0.23777978101775873	0.0	0.8408609974763469	-0.33566395139341304	0.0	0.7847171073121971	-0.25178793050917553	0.0	0.7390502344820354	-0.2575188391726473	0.0	0.7523248960046158	-0.2587123940926367	0.0	0.7853145827206196	-0.2261637089729069	0.0	0.980696483847789	-0.4057627329313755	0.0	0.983034108072904	-0.4916692196803135	0.0	0.9549583640247513	-0.4496997414277295	0.0	0.9721511157465601	-0.37908170524282603	0.0	0.8781173128463107	-0.33739208437525803	0.0	0.8086590427929574	-0.35790562728705116	0.0	0.9956162172526792	-0.385332826138945	0.0	0.9157920041891228	-0.3480451040881074	0.0	0.8619957286370569	-0.35834675508312724	0.0
